# xmcd CD database file
#
# Track frame offsets:
#	150
#	38000
#	61422
#	90072
#	127272
#	154897
#	183695
#	209417
#	230482
#	253755
#	275427
#	299000
#
# Disc length: 4342 seconds
#
# Revision: 0
# Processed by: cddbd v1.5.2PL0 Copyright (c) Steve Scherf et al.
# Submitted via: CDex 1.51
#
DISCID=b510f40c
DTITLE=Various Artist - New Age Music
DYEAR=1900
DGENRE=New Age
TTITLE0=Sea Stacks
TTITLE1=The whale's secret garden
TTITLE2=The first light
TTITLE3=Atlantis
TTITLE4=Ebony forest
TTITLE5=Falling rain stars
TTITLE6=Stream of dream
TTITLE7=Season of growth
TTITLE8=La Terre
TTITLE9=Rainbow calling
TTITLE10=Redwoods forest
TTITLE11=The wind and the sea
EXTD=
EXTT0=
EXTT1=
EXTT2=
EXTT3=
EXTT4=
EXTT5=
EXTT6=
EXTT7=
EXTT8=
EXTT9=
EXTT10=
EXTT11=
PLAYORDER=
